<svg width="1440" height="550" viewBox="0 0 1440 550" fill="none" xmlns="http://www.w3.org/2000/svg">
<g opacity="0.5" clip-path="url(#clip0)">
<path opacity="0.42" d="M0.231867 549.5C480.127 549.267 960.021 549.267 1439.92 549.5" stroke="white" stroke-miterlimit="10"/>
<path opacity="0.42" d="M0.231867 541.496C238.581 536.929 477.183 539.227 715.563 540.786C957.042 542.355 1198.45 540.966 1439.92 540.786" stroke="white" stroke-miterlimit="10"/>
<path opacity="0.42" d="M0.231867 533.191C234.881 522.538 470.29 527.005 705.013 530.962C814.054 532.801 923.109 534.254 1032.18 535.32C1168.26 536.539 1303.92 532.052 1439.92 530.513" stroke="white" stroke-miterlimit="10"/>
<path opacity="0.42" d="M0.231867 524.657C229.707 506.668 459.803 513.184 689.573 520.259C799.239 523.637 908.947 526.269 1018.7 528.154C1085.49 529.284 1152.22 529.274 1219.02 528.684C1292.86 528.024 1366.15 521.109 1439.92 519.05" stroke="white" stroke-miterlimit="10"/>
<path opacity="0.42" d="M0.231867 515.782C223.752 489.58 446.281 497.974 670.402 508.717C780.953 514.014 891.585 518.048 1002.3 520.819C1071.49 522.611 1140.68 523.128 1209.85 522.368C1286.97 521.529 1362.95 510.176 1439.87 506.498" stroke="white" stroke-miterlimit="10"/>
<path opacity="0.42" d="M0.231867 506.718C118.906 487.712 239.118 478.682 359.468 479.736C456.114 480.495 552.339 490.059 648.638 496.615C760.229 504.21 872.221 509.407 984.012 513.364C1055.82 515.912 1127.65 517.102 1199.51 516.192C1280.39 515.193 1359.41 498.744 1439.92 493.207" stroke="white" stroke-miterlimit="10"/>
<path opacity="0.42" d="M0.231867 497.424C114.11 473.62 231.593 460.109 348.349 462.058C441.148 463.597 533.2 475.789 625.462 484.143C738.128 494.336 851.553 500.722 964.588 505.799C1039.13 509.137 1113.79 511.075 1188.42 510.026C1273.33 508.827 1355.62 486.961 1439.92 479.466" stroke="white" stroke-miterlimit="10"/>
<path opacity="0.42" d="M0.231867 487.941C109.22 459.669 223.752 441.071 337.103 444.069C426.056 446.418 513.86 461.298 602.032 471.411C715.711 484.463 830.674 491.868 944.964 498.014C1022.25 502.171 1099.79 504.86 1177.21 503.67C1266.21 502.301 1351.83 474.879 1439.92 465.445" stroke="white" stroke-miterlimit="10"/>
<path opacity="0.42" d="M0.231867 478.277C103.613 446.168 214.582 422.553 324.003 426.131C410.078 428.939 494.552 446.738 579.499 458.62C695.264 474.819 813.074 483.134 929.787 490.249C1009.17 495.086 1089.02 498.564 1168.58 496.995C1260.72 495.176 1348.92 462.557 1439.92 451.425" stroke="white" stroke-miterlimit="10"/>
<path opacity="0.42" d="M0.231867 468.443C99.0389 432.867 207.658 404.415 314.306 408.782C397.072 412.18 477.667 432.587 559.01 445.948C675.397 465.086 794.798 474.05 912.534 482.034C994.362 487.591 1076.82 491.668 1158.88 489.899C1254.59 487.831 1345.59 450.345 1439.91 437.654" stroke="white" stroke-miterlimit="10"/>
<path opacity="0.42" d="M0.231867 458.47C95.0866 420.025 201.703 387.516 306.202 392.403C386.227 396.151 463.555 418.956 541.758 433.556C658.482 455.362 779.274 464.856 897.747 473.53C981.746 479.696 1066.5 484.183 1150.77 482.214C1249.55 479.906 1342.75 438.243 1439.92 424.372" stroke="white" stroke-miterlimit="10"/>
<path opacity="0.42" d="M0.231867 448.366C92.1988 407.663 197.129 372.416 300.226 377.413C378.217 381.2 453.047 406.124 528.868 421.654C645.634 445.548 767.427 455.552 886.301 464.696C972.103 471.331 1058.68 475.928 1144.79 473.79C1245.97 471.272 1340.52 426.491 1439.89 411.83" stroke="white" stroke-miterlimit="10"/>
<path opacity="0.42" d="M0.231867 438.163C90.1014 395.981 192.987 360.034 294.977 364.082C372.589 367.15 446.407 394.062 521.501 410.351C639.279 435.845 762.938 446.488 883.098 455.912C969.658 462.697 1057 467.114 1143.84 464.526C1245.52 461.528 1339.88 415.088 1439.92 400.358" stroke="white" stroke-miterlimit="10"/>
<path opacity="0.42" d="M0.231867 427.72C89.3215 385.748 194.315 349.941 295.483 353.569C372.937 356.357 446.386 384.019 521.279 400.158C639.489 425.631 764.74 435.215 885.226 445.349C971.049 452.574 1057.76 457.341 1143.93 454.173C1245.41 450.395 1340.02 404.935 1439.92 390.085" stroke="white" stroke-miterlimit="10"/>
<path opacity="0.42" d="M0.231867 416.587C90.2385 376.434 201.313 342.386 302.207 345.894C379.198 348.582 452.352 375.374 527.087 390.354C576.949 400.348 627.369 403.346 677.895 408.802C749.194 416.447 820.304 425.651 891.698 432.427C975.56 440.422 1060.57 446.228 1144.86 442.35C1245.51 437.713 1340.75 395.921 1439.97 381.081" stroke="white" stroke-miterlimit="10"/>
<path opacity="0.42" d="M0.231867 404.735C55.2476 382.45 112.361 367.939 171.023 357.376C216.954 349.112 263.222 339.168 310.143 340.097C387.629 341.636 461.563 367.16 537.141 380.501C588.521 389.575 640.259 390.494 692.155 395.191C763.422 401.687 834.3 411.481 905.462 418.876C986.479 427.29 1068.9 433.866 1150.42 429.179C1248.56 423.483 1342.87 387.207 1439.86 373.156" stroke="white" stroke-miterlimit="10"/>
<path opacity="0.42" d="M0.231867 392.243C57.482 372.007 116.629 361.264 176.883 352.869C224.489 346.233 272.444 335.78 320.756 335.78C398.969 335.7 474.094 359.385 550.79 370.587C603.666 378.312 656.7 377.003 709.935 381.011C780.886 386.347 851.3 396.56 921.956 404.535C999.948 413.329 1079.36 420.525 1157.89 414.978C1253 408.303 1345.59 378.672 1439.95 366.01" stroke="white" stroke-miterlimit="10"/>
<path opacity="0.42" d="M0.231867 379.392C60.1695 361.623 121.646 354.998 183.86 349.131C233.606 344.445 283.236 333.812 333.235 332.542C412.355 330.544 488.997 351.93 567.02 360.604C621.351 366.65 675.65 363.172 730.118 366.42C800.542 370.617 870.292 381.101 940.211 389.625C1014.95 398.739 1091.06 406.274 1166.41 400.038C1258.17 392.443 1348.49 370.298 1439.92 359.505" stroke="white" stroke-miterlimit="10"/>
<path opacity="0.42" d="M0.231867 366.31C63.6581 351.23 128.075 348.972 193.029 345.774C245.537 343.225 296.874 332.323 349.213 329.924C428.67 326.296 506.25 344.864 585.053 350.691C643.663 355.018 702.104 349.002 760.777 352.09C826.322 355.557 891.16 365.411 956.104 374.005C1027.95 383.519 1101.01 391.654 1173.57 384.948C1262.57 376.713 1350.93 362.123 1439.92 353.379" stroke="white" stroke-miterlimit="10"/>
<path opacity="0.42" d="M0.231867 353.139C66.8093 341.097 133.714 343.245 201.103 342.856C256.403 342.546 308.805 331.693 363.546 327.785C444.205 322.039 523.682 338.009 604.045 340.937C664.12 343.125 723.615 334.941 783.69 337.319C848.349 339.858 912.197 349.781 976.087 358.905C1044.36 368.659 1113.67 377.223 1182.71 369.748C1268.36 360.484 1353.98 353.988 1439.87 347.532" stroke="white" stroke-miterlimit="10"/>
<path opacity="0.42" d="M0.231867 340.057C69.9185 331.123 139.205 337.579 209.06 339.878C267.29 341.776 320.398 330.993 377.764 325.567C459.75 317.812 541.199 331.233 623.164 331.273C684.567 331.273 745.105 321.08 806.613 322.709C870.292 324.388 933.086 334.311 995.774 344.015C1060.36 354.008 1125.77 363.052 1191.19 354.818C1273.8 344.415 1356.81 345.824 1439.92 341.626" stroke="white" stroke-miterlimit="10"/>
<path opacity="0.42" d="M0.231867 327.206C72.8168 321.32 144.263 331.833 216.501 336.61C245.8 338.538 275.384 339.488 304.663 336.67C333.762 333.871 362.113 326.226 391.202 322.909C474.579 313.375 557.988 324.498 641.545 321.789C704.275 319.791 765.741 307.579 828.714 308.478C891.35 309.377 952.921 319.261 1014.43 329.624C1075.24 339.867 1136.69 349.521 1198.39 340.497C1278.49 328.795 1359.27 337.589 1439.92 335.5" stroke="white" stroke-miterlimit="10"/>
<path opacity="0.42" d="M0.231867 314.794C75.3463 311.676 148.606 325.887 223.014 332.782C253.209 335.58 283.774 337.149 314.053 334.421C344.059 331.723 373.264 323.278 403.164 319.431C487.975 308.438 573.27 317.682 658.365 312.515C722.371 308.638 784.733 294.607 849.129 294.827C910.7 295.037 971.049 304.82 1031.29 315.973C1088.2 326.496 1145.73 336.959 1203.66 327.136C1281.94 313.875 1361.07 329.294 1439.87 328.925" stroke="white" stroke-miterlimit="10"/>
<path opacity="0.42" d="M0.231867 302.872C77.3488 302.192 151.999 319.601 228.168 328.165C259.069 331.643 290.456 333.662 321.515 330.803C352.333 327.955 382.328 318.981 412.997 314.734C499.22 302.812 586.244 310.737 672.773 303.521C738.012 298.105 801.27 282.355 867.141 281.935C927.69 281.556 986.763 291.359 1045.74 303.321C1098.88 314.094 1152.26 325.537 1206.54 315.024C1283.91 300.034 1362.04 320.94 1439.92 321.689" stroke="white" stroke-miterlimit="10"/>
<path opacity="0.42" d="M0.231867 291.699C78.6978 292.848 154.181 312.845 231.572 322.479C262.937 326.376 294.914 328.605 326.427 325.327C357.94 322.049 388.609 312.875 419.975 308.458C507.525 296.126 596.067 303.461 683.881 294.827C750.343 288.301 814.507 270.963 881.748 269.993C941.317 269.134 999.2 278.867 1056.89 291.919C1107.14 303.281 1154.68 314.334 1206.23 304.511C1284.75 289.52 1360.95 312.505 1439.87 313.585" stroke="white" stroke-miterlimit="10"/>
<path opacity="0.42" d="M0.231867 281.406C79.2775 283.634 154.877 305.52 232.795 315.464C264.339 319.461 296.611 321.599 328.303 317.592C360.3 313.545 391.539 304.531 423.547 300.183C512.3 288.191 602.053 295.816 690.975 286.492C758.648 279.387 823.771 260.599 892.277 259.18C950.95 257.971 1007.75 267.645 1064.16 282.005C1110.54 293.798 1154.35 306.479 1202.23 295.916C1282.33 278.268 1359.19 304.211 1439.86 304.391" stroke="white" stroke-miterlimit="10"/>
<path opacity="0.42" d="M0.231867 272.102C79.6885 275.1 156.11 295.796 234.628 305.49C266.11 309.378 298.223 311.486 329.863 307.908C362.187 304.261 393.879 296.066 426.224 292.089C516.189 281.016 607.06 287.302 697.087 278.018C762.706 271.252 826.132 253.804 892.52 252.505C949.18 251.395 1004.16 260.499 1058.86 273.551C1104.83 284.544 1148.45 296.026 1195.8 286.542C1277.91 270.083 1357.28 294.617 1439.89 294.687" stroke="white" stroke-miterlimit="10"/>
<path opacity="0.42" d="M0.231867 263.717C80.7108 267.425 158.502 287.022 238.191 296.466C305.506 304.461 364.98 292.339 431.42 284.993C522.365 274.94 614.153 279.917 705.129 270.743C768.713 264.337 830.506 248.158 894.691 246.838C949.433 245.709 1002.74 253.994 1055.86 265.666C1101.6 275.71 1145.13 285.813 1192.05 277.199C1275.31 261.899 1356.22 285.123 1439.92 285.133" stroke="white" stroke-miterlimit="10"/>
<path opacity="0.42" d="M0.231867 256.122C82.1969 260.559 161.833 279.107 243.144 288.261C310.681 295.906 371.725 285.323 438.629 278.768C530.385 269.773 622.879 273.481 714.604 264.477C776.186 258.421 836.239 243.491 898.359 242.022C951.277 240.772 1003.04 248.158 1054.69 258.271C1100.38 267.215 1144 275.829 1190.56 267.945C1274.22 253.764 1355.9 275.819 1439.92 275.819" stroke="white" stroke-miterlimit="10"/>
<path opacity="0.42" d="M0.231867 249.197C84.0307 254.344 165.88 271.802 249.173 280.746C317.12 288.051 379.862 279.057 447.377 273.261C539.776 265.326 632.818 267.825 725.112 259.01C784.712 253.324 843.069 239.593 903.112 237.904C954.344 236.455 1004.68 242.821 1054.98 251.306C1100.74 259.02 1144.57 266.076 1190.94 258.801C1274.39 245.699 1356.16 266.596 1439.88 266.635" stroke="white" stroke-miterlimit="10"/>
<path opacity="0.42" d="M0.231867 242.841C86.1175 248.687 170.422 265.126 255.929 273.821C324.435 280.816 388.925 273.391 457.158 268.354C550.073 261.499 643.505 262.808 736.273 254.204C793.934 248.837 850.604 236.315 908.603 234.327C958.286 232.628 1007.34 237.874 1056.4 244.69C1102.34 251.086 1146.64 256.542 1192.89 249.816C1275.62 237.824 1356.97 257.621 1439.92 257.731" stroke="white" stroke-miterlimit="10"/>
<path opacity="0.42" d="M0.231867 236.845C88.3624 243.381 175.186 258.831 263.106 267.255C332.297 273.901 398.453 268.105 467.497 263.827C560.792 258.031 654.498 258.141 747.613 249.747C803.377 244.75 858.362 233.407 914.368 231.109C962.66 229.11 1010.54 233.187 1058.45 238.354C1104.72 243.351 1149.59 247.208 1195.92 240.982C1277.57 229.989 1358.11 248.837 1439.92 249.047" stroke="white" stroke-miterlimit="10"/>
<path opacity="0.42" d="M0.231867 231.229C90.6284 238.444 180.087 252.904 270.357 261.079C340.275 267.405 408.023 263.208 477.899 259.66C571.489 254.923 665.353 253.814 758.722 245.669C812.641 240.902 865.95 230.849 920.091 228.181C967.128 225.882 1013.98 228.74 1060.84 232.288C1107.54 235.826 1153.11 238.154 1199.71 232.418C1280.04 222.534 1359.52 240.413 1440.01 240.682" stroke="white" stroke-miterlimit="10"/>
<path opacity="0.42" d="M0.231867 225.762C92.8417 233.647 184.788 247.148 277.418 255.053C348.033 261.049 417.245 258.441 487.922 255.633C581.723 251.895 675.682 249.547 769.23 241.532C821.347 237.075 873.001 228.261 925.213 225.303C971.165 222.694 1017.09 224.303 1063.03 226.362C1110.29 228.44 1156.68 229.36 1203.76 224.093C1282.68 215.329 1360.94 232.088 1439.94 232.588" stroke="white" stroke-miterlimit="10"/>
<path opacity="0.42" d="M0.231867 220.366C94.8758 228.9 189.088 241.452 283.826 249.067C355.083 254.803 425.55 253.714 496.944 251.605C590.924 248.837 684.893 245.189 778.568 237.305C874.645 229.22 968.003 219.207 1064.7 220.516C1112.65 221.175 1160 220.716 1207.73 216.049C1285.28 208.454 1362.34 224.213 1439.92 224.793" stroke="white" stroke-miterlimit="10"/>
<path opacity="0.42" d="M0.231867 214.909C168.789 230.899 334.921 250.816 504.606 247.448C598.758 245.589 692.71 240.692 786.462 232.758C879.757 224.973 971.713 216.069 1065.47 214.699C1114.25 213.99 1162.68 212.361 1211.27 208.324C1287.63 201.978 1363.57 216.618 1439.92 217.318" stroke="white" stroke-miterlimit="10"/>
<path opacity="0.42" d="M0.231867 209.263C170.074 226.252 339.337 244.91 510.339 243.021C604.636 242.022 698.51 235.536 792.395 227.691C883.266 220.106 973.673 212.441 1064.9 208.833C1114.65 206.875 1164.32 204.25 1213.93 200.958C1289.38 195.962 1364.46 209.383 1439.88 210.192" stroke="white" stroke-miterlimit="10"/>
<path opacity="0.42" d="M0.231867 203.317C170.601 221.305 342.109 238.724 513.754 238.184C608.24 237.884 702.041 229.9 796.052 221.935C884.826 214.41 973.736 208.244 1062.7 202.857C1113.59 199.779 1164.5 196.431 1215.43 193.983C1290.4 190.365 1365.02 202.527 1439.92 203.427" stroke="white" stroke-miterlimit="10"/>
<path opacity="0.42" d="M0.231867 197.051C169.737 215.529 342.383 231.319 513.185 231.738C607.945 231.978 702.094 224.743 796.348 216.328C884.109 208.504 972.156 203.487 1060.03 196.721C1111.68 192.724 1163.45 189.156 1215.27 186.848C1290.46 183.5 1364.76 197.371 1439.92 196.841" stroke="white" stroke-miterlimit="10"/>
<path opacity="0.42" d="M0.231867 191.065C97.1945 201.188 194.357 206.115 291.699 210.842C363.726 214.34 435.436 220.366 507.568 221.435C602.772 222.946 697.994 219.704 792.838 211.721C880.947 204.206 969.025 198.18 1056.99 188.996C1109.12 183.56 1161.19 179.003 1213.52 175.895C1289.69 171.288 1363.83 191.884 1439.92 189.166" stroke="white" stroke-miterlimit="10"/>
<path opacity="0.42" d="M0.231867 185.499C94.9917 194.223 189.825 195.092 284.901 197.401C356.222 199.13 427.184 205.615 498.409 208.234C594.391 211.761 690.669 214.01 786.567 207.344C875.583 201.158 963.808 192.354 1052.05 179.602C1104.75 171.957 1157.3 165.702 1210.39 161.175C1288.17 154.539 1362.23 184.309 1439.92 180.482" stroke="white" stroke-miterlimit="10"/>
<path opacity="0.42" d="M0.231867 180.382C92.3147 187.058 184.018 183.15 276.185 182.321C346.557 181.681 416.36 188.177 486.436 192.844C583.399 199.3 680.815 207.634 778.104 203.267C868.648 199.19 956.958 186.278 1045.62 168.979C1098.89 158.546 1152.06 149.382 1206.15 143.586C1286.09 135.022 1360.03 175.255 1439.92 171.108" stroke="white" stroke-miterlimit="10"/>
<path opacity="0.42" d="M0.231867 175.705C89.3637 179.872 177.294 170.708 266.067 166.181C335.459 162.683 403.47 168.949 472.398 175.985C570.562 185.978 669.031 200.968 768.018 199.529C860.765 198.17 948.906 180.162 1038.07 157.557C1091.94 143.916 1145.86 131.404 1201.12 124.009C1283.45 113.016 1357.47 165.182 1439.92 161.334" stroke="white" stroke-miterlimit="10"/>
<path opacity="0.42" d="M0.231867 171.508C86.2967 172.827 169.853 157.977 255.054 149.522C323.56 142.737 389.168 148.753 457.052 158.356C556.555 172.417 655.952 194.333 756.909 196.182C852.354 198 940.116 174.086 1029.82 145.904C1084.21 128.806 1138.96 112.566 1195.57 103.422C1280.26 89.7412 1354.85 154.729 1439.92 151.571" stroke="white" stroke-miterlimit="10"/>
<path opacity="0.42" d="M0.231867 167.81C83.3141 166.081 162.17 145.465 243.692 132.973C311.513 122.58 374.128 128.486 441.169 140.718C542.063 159.116 642.251 187.877 745.347 193.343C843.849 198.54 931.168 168.26 1021.26 134.382C1076.06 113.736 1131.73 93.5688 1189.79 82.6259C1227.74 75.4806 1262.77 89.2616 1297.23 103.083C1343.61 121.66 1388.44 143.386 1439.92 142.057" stroke="white" stroke-miterlimit="10"/>
<path opacity="0.42" d="M0.231867 164.622C80.5422 159.795 154.529 133.493 232.352 117.043C299.509 102.843 358.993 108.919 425.36 123.719C527.74 146.564 628.592 182.061 733.923 191.005C835.565 199.639 922.494 162.893 1012.84 123.409C1068.03 99.295 1124.56 75.2208 1184.13 62.4491C1223.01 54.1346 1259.79 71.4432 1294.07 87.093C1340.99 108.549 1386.44 133.862 1439.97 133.013" stroke="white" stroke-miterlimit="10"/>
<path opacity="0.42" d="M0.231867 161.964C78.0865 154.129 147.257 122.43 221.675 102.313C288.074 84.3248 344.786 90.9205 410.51 108.109C514.26 135.261 615.649 177.064 723.204 189.246C827.85 201.108 914.558 158.037 1004.81 113.546C1060.27 86.1736 1117.67 58.4318 1178.73 43.9712C1218.61 34.5274 1256.91 55.1339 1291 72.5125C1338.43 96.6467 1384.39 125.478 1439.92 124.978" stroke="white" stroke-miterlimit="10"/>
<path opacity="0.42" d="M0.231867 159.895C76.0419 149.332 140.701 112.706 212.127 89.3915C240.794 80.0376 270.852 73.402 301.343 74.1415C333.931 74.931 366.434 85.494 397.315 94.6381C502.287 125.738 604.119 173.217 713.782 188.157C765.836 195.252 812.852 190.156 862.061 172.037C909.657 154.469 953.532 129.245 997.703 105.251C1053.47 74.951 1111.54 43.9712 1174.02 27.9817C1214.94 17.4986 1254.34 40.9732 1288.35 59.8908C1336.03 86.4134 1382.56 118.622 1439.92 118.143" stroke="white" stroke-miterlimit="10"/>
<path opacity="0.42" d="M0.231867 158.316C74.4609 145.505 135.136 104.562 204.212 78.7285C268.913 54.5043 322.306 63.0187 386.544 83.8951C492.517 118.343 594.697 170.758 706.257 187.687C758.954 195.682 806.381 190.385 855.832 170.938C903.934 151.951 947.788 124.748 991.927 98.8653C1047.88 66.0468 1106.53 32.6886 1170.28 15.3499C1212.29 3.92742 1252.16 29.5107 1286.21 49.8474C1334.02 78.3687 1380.97 113.696 1439.91 112.806" stroke="white" stroke-miterlimit="10"/>
<path opacity="0.42" d="M0.231867 157.367C73.4386 143.026 131.047 98.5355 198.447 71.0035C262.252 44.9706 315.55 54.7841 378.85 76.7098C485.551 113.686 587.973 170.099 701.124 187.997C811.988 205.545 898.843 149.962 987.796 94.9678C1043.99 60.2106 1102.91 25.3634 1167.74 7.02539C1210.84 -5.18662 1250.4 21.4659 1284.81 43.1218C1332.54 73.1621 1379.8 111.257 1439.95 109.358" stroke="white" stroke-miterlimit="10"/>
<path opacity="0.42" d="M0.231867 157.017C73.0698 142.167 128.634 94.9379 195.316 66.7463C258.374 40.0538 312.725 51.4463 375.077 73.7417C482.189 112.077 584.748 171.498 699.058 189.106C810.544 206.275 897.389 150.362 985.73 93.9585C1042.18 57.962 1101.02 22.835 1166.71 3.84747C1210.98 -8.93416 1249.18 17.3986 1284.23 40.3136C1331.65 71.2933 1379.08 111.707 1439.96 108.049" stroke="white" stroke-miterlimit="10"/>
</g>
<defs>
<clipPath id="clip0">
<rect width="1440" height="550" fill="white"/>
</clipPath>
</defs>
</svg>
