<svg width="1512" height="289" viewBox="0 0 1512 289" fill="none" xmlns="http://www.w3.org/2000/svg">
<g clip-path="url(#clip0_130_63)">
<mask id="mask0_130_63" style="mask-type:luminance" maskUnits="userSpaceOnUse" x="-257" y="0" width="1827" height="168">
<path d="M1570 0H-257V168H1570V0Z" fill="white"/>
</mask>
<g mask="url(#mask0_130_63)">
<g opacity="0.5">
<path opacity="0.42" d="M-256.706 167.847C352.161 167.776 961.027 167.776 1569.9 167.847" stroke="white" stroke-miterlimit="10"/>
<path opacity="0.42" d="M-256.706 165.402C45.6996 164.007 348.426 164.709 650.871 165.186C957.247 165.665 1263.53 165.241 1569.9 165.186" stroke="white" stroke-miterlimit="10"/>
<path opacity="0.42" d="M-256.706 162.866C41.0053 159.612 339.68 160.976 637.485 162.185C775.831 162.746 914.195 163.19 1052.58 163.516C1225.23 163.888 1397.35 162.518 1569.9 162.048" stroke="white" stroke-miterlimit="10"/>
<path opacity="0.42" d="M-256.706 160.259C34.4407 154.764 326.375 156.754 617.896 158.916C757.034 159.947 896.226 160.751 1035.48 161.327C1120.22 161.672 1204.88 161.669 1289.63 161.489C1383.32 161.287 1476.3 159.175 1569.9 158.546" stroke="white" stroke-miterlimit="10"/>
<path opacity="0.42" d="M-256.706 157.548C26.8854 149.544 309.219 152.108 593.573 155.39C733.834 157.008 874.199 158.24 1014.67 159.087C1102.45 159.634 1190.24 159.792 1278 159.56C1375.84 159.303 1472.24 155.836 1569.84 154.712" stroke="white" stroke-miterlimit="10"/>
<path opacity="0.42" d="M-256.706 154.779C-106.138 148.974 46.3809 146.216 199.075 146.538C321.695 146.769 443.78 149.691 565.959 151.693C707.541 154.013 849.63 155.601 991.465 156.809C1082.57 157.588 1173.71 157.951 1264.88 157.673C1367.49 157.368 1467.75 152.344 1569.9 150.652" stroke="white" stroke-miterlimit="10"/>
<path opacity="0.42" d="M-256.706 151.94C-112.223 144.669 36.8336 140.542 184.968 141.138C302.707 141.608 419.497 145.332 536.555 147.884C679.5 150.997 823.408 152.948 966.821 154.499C1061.4 155.518 1156.12 156.11 1250.81 155.79C1358.54 155.424 1462.94 148.744 1569.9 146.455" stroke="white" stroke-miterlimit="10"/>
<path opacity="0.42" d="M-256.706 149.044C-118.427 140.408 26.8853 134.727 170.699 135.643C283.559 136.36 394.96 140.906 506.828 143.995C651.058 147.981 796.918 150.243 941.923 152.121C1039.98 153.39 1138.36 154.212 1236.59 153.848C1349.5 153.43 1458.13 145.054 1569.9 142.172" stroke="white" stroke-miterlimit="10"/>
<path opacity="0.42" d="M-256.706 146.092C-125.541 136.284 15.2509 129.071 154.079 130.164C263.286 131.021 370.463 136.458 478.239 140.088C625.116 145.036 774.588 147.575 922.667 149.749C1023.38 151.226 1124.69 152.289 1225.64 151.809C1342.54 151.254 1454.44 141.29 1569.9 137.89" stroke="white" stroke-miterlimit="10"/>
<path opacity="0.42" d="M-256.706 143.088C-131.344 132.221 6.4661 123.53 141.776 124.864C246.785 125.902 349.04 132.136 452.244 136.217C599.91 142.063 751.4 144.801 900.778 147.239C1004.6 148.937 1109.22 150.182 1213.33 149.642C1334.76 149.01 1450.22 137.56 1569.89 133.683" stroke="white" stroke-miterlimit="10"/>
<path opacity="0.42" d="M-256.706 140.042C-136.359 128.299 -1.08933 118.369 131.494 119.861C233.025 121.006 331.135 127.972 430.355 132.432C578.449 139.092 731.704 141.992 882.016 144.642C988.59 146.525 1096.12 147.896 1203.04 147.294C1328.37 146.589 1446.61 133.863 1569.9 129.626" stroke="white" stroke-miterlimit="10"/>
<path opacity="0.42" d="M-256.706 136.955C-140.023 124.522 -6.89255 113.756 123.912 115.282C222.863 116.439 317.803 124.052 414.001 128.796C562.148 136.095 716.673 139.15 867.494 141.943C976.356 143.97 1086.2 145.374 1195.45 144.721C1323.82 143.952 1443.78 130.274 1569.86 125.795" stroke="white" stroke-miterlimit="10"/>
<path opacity="0.42" d="M-256.706 133.839C-142.684 120.954 -12.1478 109.974 117.252 111.21C215.722 112.148 309.379 120.368 404.654 125.344C554.085 133.131 710.978 136.382 863.431 139.26C973.254 141.333 1084.07 142.682 1194.25 141.892C1323.25 140.976 1442.97 126.79 1569.9 122.291" stroke="white" stroke-miterlimit="10"/>
<path opacity="0.42" d="M-256.706 130.649C-143.673 117.828 -10.4628 106.891 117.894 107.999C216.164 108.851 309.352 117.3 404.373 122.23C554.352 130.011 713.264 132.938 866.13 136.034C975.018 138.241 1085.03 139.697 1194.36 138.729C1323.11 137.575 1443.15 123.689 1569.9 119.153" stroke="white" stroke-miterlimit="10"/>
<path opacity="0.42" d="M-256.706 127.248C-142.51 114.984 -1.58411 104.583 126.425 105.655C224.107 106.476 316.922 114.66 411.742 119.235C475.004 122.288 538.974 123.204 603.079 124.87C693.54 127.206 783.761 130.017 874.342 132.087C980.742 134.529 1088.6 136.302 1195.54 135.118C1323.24 133.701 1444.08 120.936 1569.96 116.403" stroke="white" stroke-miterlimit="10"/>
<path opacity="0.42" d="M-256.706 123.628C-186.905 116.821 -114.442 112.389 -40.0146 109.162C18.2604 106.638 76.9629 103.6 136.494 103.884C234.804 104.354 328.608 112.151 424.498 116.226C489.686 118.998 555.329 119.278 621.172 120.713C711.592 122.697 801.518 125.689 891.805 127.948C994.595 130.518 1099.17 132.526 1202.6 131.095C1327.11 129.355 1446.77 118.274 1569.82 113.982" stroke="white" stroke-miterlimit="10"/>
<path opacity="0.42" d="M-256.706 119.812C-184.07 113.631 -109.027 110.35 -32.5797 107.785C27.8204 105.758 88.6634 102.565 149.959 102.565C249.192 102.541 344.507 109.776 441.815 113.197C508.901 115.557 576.188 115.157 643.73 116.382C733.749 118.011 823.087 121.131 912.732 123.567C1011.68 126.253 1112.44 128.451 1212.07 126.757C1332.74 124.718 1450.22 115.667 1569.94 111.799" stroke="white" stroke-miterlimit="10"/>
<path opacity="0.42" d="M-256.706 115.887C-180.66 110.459 -102.662 108.436 -23.7276 106.644C39.3876 105.212 102.356 101.964 165.792 101.576C266.175 100.966 363.415 107.499 462.407 110.148C531.339 111.995 600.231 110.932 669.337 111.925C758.688 113.207 847.183 116.409 935.893 119.013C1030.72 121.797 1127.28 124.098 1222.88 122.193C1339.3 119.873 1453.9 113.109 1569.9 109.812" stroke="white" stroke-miterlimit="10"/>
<path opacity="0.42" d="M-256.706 111.891C-176.234 107.285 -94.5048 106.595 -12.0945 105.618C54.5251 104.84 119.659 101.51 186.064 100.777C286.875 99.6687 385.305 105.34 485.286 107.12C559.647 108.442 633.794 106.604 708.236 107.548C791.396 108.607 873.659 111.617 956.057 114.242C1047.21 117.148 1139.91 119.633 1231.97 117.584C1344.89 115.069 1456.99 110.612 1569.9 107.941" stroke="white" stroke-miterlimit="10"/>
<path opacity="0.42" d="M-256.706 107.868C-172.236 104.19 -87.3504 104.846 -1.85056 104.727C68.3113 104.632 134.796 101.317 204.249 100.123C306.585 98.3682 407.422 103.246 509.382 104.141C585.602 104.809 661.087 102.309 737.307 103.036C819.343 103.811 900.35 106.842 981.41 109.629C1068.03 112.609 1155.97 115.224 1243.56 112.941C1352.23 110.111 1460.86 108.127 1569.84 106.155" stroke="white" stroke-miterlimit="10"/>
<path opacity="0.42" d="M-256.706 103.872C-168.291 101.143 -80.3837 103.115 8.24486 103.817C82.1242 104.397 149.505 101.103 222.288 99.4459C326.308 97.0771 429.646 101.177 533.639 101.189C611.544 101.189 688.352 98.0753 766.39 98.5729C847.183 99.0858 926.853 102.117 1006.39 105.081C1088.33 108.133 1171.32 110.896 1254.32 108.381C1359.13 105.203 1464.45 105.633 1569.9 104.351" stroke="white" stroke-miterlimit="10"/>
<path opacity="0.42" d="M-256.706 99.9465C-164.614 98.1486 -73.9663 101.36 17.6856 102.819C54.8587 103.408 92.3934 103.698 129.541 102.837C166.461 101.982 202.431 99.6472 239.338 98.634C345.122 95.7218 450.947 99.1194 556.96 98.2919C636.549 97.6816 714.534 93.9514 794.431 94.226C873.9 94.5006 952.018 97.5197 1030.06 100.685C1107.21 103.814 1185.18 106.763 1263.46 104.006C1365.08 100.432 1467.57 103.118 1569.9 102.48" stroke="white" stroke-miterlimit="10"/>
<path opacity="0.42" d="M-256.706 96.1552C-161.404 95.2028 -68.4561 99.5436 25.949 101.65C64.2589 102.504 103.038 102.984 141.455 102.15C179.525 101.326 216.579 98.7467 254.514 97.5716C362.118 94.2137 470.336 97.0374 578.301 95.4591C659.508 94.2748 738.63 89.989 820.333 90.0562C898.451 90.1203 975.019 93.1086 1051.45 96.5153C1123.65 99.7296 1196.65 102.926 1270.14 99.9251C1369.46 95.8745 1469.86 100.584 1569.84 100.472" stroke="white" stroke-miterlimit="10"/>
<path opacity="0.42" d="M-256.706 92.5137C-158.864 92.306 -64.1513 97.6236 32.4881 100.24C71.6938 101.302 111.516 101.919 150.922 101.045C190.022 100.175 228.079 97.4342 266.99 96.137C376.385 92.4953 486.797 94.9161 596.581 92.7119C679.353 91.0576 759.611 86.2467 843.185 86.1184C920.007 86.0026 994.956 88.997 1069.78 92.6508C1137.2 95.9415 1204.93 99.4368 1273.8 96.2255C1371.96 91.6468 1471.09 98.0326 1569.9 98.2614" stroke="white" stroke-miterlimit="10"/>
<path opacity="0.42" d="M-256.706 89.1008C-157.152 89.4517 -61.3828 95.5599 36.807 98.5027C76.6013 99.693 117.172 100.374 157.154 99.3726C197.136 98.3713 236.048 95.5691 275.843 94.2199C386.922 90.453 499.26 92.6935 610.674 90.0562C694.998 88.0628 776.406 82.7669 861.718 82.4706C937.296 82.2082 1010.74 85.1812 1083.93 89.168C1147.68 92.6385 1208 96.0147 1273.4 93.0142C1373.03 88.4352 1469.71 95.4561 1569.84 95.7859" stroke="white" stroke-miterlimit="10"/>
<path opacity="0.42" d="M-256.706 85.9567C-156.417 86.6373 -60.4998 93.3225 38.3586 96.3599C78.3801 97.5808 119.325 98.2339 159.534 97.0099C200.131 95.7737 239.765 93.0204 280.375 91.6923C392.981 88.0292 506.855 90.3583 619.674 87.5103C705.535 85.34 788.159 79.6011 875.076 79.1677C949.518 78.7984 1021.58 81.7534 1093.15 86.1397C1152 89.7419 1207.58 93.6154 1268.33 90.3889C1369.96 84.9982 1467.47 92.9226 1569.82 92.9776" stroke="white" stroke-miterlimit="10"/>
<path opacity="0.42" d="M-256.706 83.1148C-155.895 84.0305 -58.9354 90.3522 40.6843 93.3133C80.6271 94.5009 121.37 95.1448 161.514 94.0519C202.525 92.9379 242.734 90.4347 283.772 89.2199C397.915 85.8376 513.207 87.7577 627.429 84.9218C710.683 82.8551 791.155 77.5256 875.385 77.1288C947.272 76.7897 1017.03 79.5706 1086.43 83.5574C1144.75 86.9152 1200.1 90.4225 1260.17 87.5255C1364.35 82.4981 1465.05 89.9921 1569.86 90.0135" stroke="white" stroke-miterlimit="10"/>
<path opacity="0.42" d="M-256.706 80.5535C-154.598 81.6862 -55.9006 87.6721 45.2048 90.5569C130.611 92.999 206.068 89.2963 290.364 87.0524C405.751 83.9816 522.207 85.5019 637.632 82.6997C718.305 80.7429 796.704 75.801 878.139 75.3978C947.593 75.0529 1015.23 77.5836 1082.62 81.1489C1140.66 84.2168 1195.88 87.3029 1255.41 84.6717C1361.05 79.9982 1463.7 87.0921 1569.9 87.0951" stroke="white" stroke-miterlimit="10"/>
<path opacity="0.42" d="M-256.706 78.2336C-152.713 79.5889 -51.6744 85.2545 51.4889 88.0506C137.177 90.3858 214.626 87.1532 299.511 85.1509C415.926 82.4034 533.278 83.536 649.654 80.7857C727.786 78.9358 803.978 74.3754 882.793 73.9267C949.933 73.5449 1015.61 75.8009 1081.14 78.89C1139.11 81.622 1194.45 84.2532 1253.52 81.845C1359.67 77.5133 1463.3 84.2501 1569.9 84.2501" stroke="white" stroke-miterlimit="10"/>
<path opacity="0.42" d="M-256.706 76.1183C-150.386 77.6905 -46.5398 83.0231 59.1382 85.7551C145.346 87.9865 224.95 85.2392 310.61 83.4688C427.841 81.045 545.888 81.8084 662.986 79.1158C738.603 77.379 812.644 73.1848 888.823 72.6688C953.824 72.2262 1017.69 74.1708 1081.51 76.7625C1139.56 79.1188 1195.17 81.2741 1254.01 79.0519C1359.88 75.0499 1463.63 81.4329 1569.85 81.4449" stroke="white" stroke-miterlimit="10"/>
<path opacity="0.42" d="M-256.706 74.1769C-147.738 75.9626 -40.7771 80.9839 67.7099 83.6399C154.627 85.7765 236.449 83.5085 323.019 81.9699C440.905 79.8761 559.447 80.2759 677.146 77.6478C750.304 76.0084 822.204 72.1835 895.79 71.5762C958.825 71.0573 1021.06 72.6597 1083.31 74.7417C1141.59 76.6954 1197.8 78.3619 1256.48 76.3074C1361.44 72.6444 1464.66 78.6915 1569.9 78.7251" stroke="white" stroke-miterlimit="10"/>
<path opacity="0.42" d="M-256.706 72.3454C-144.89 74.3418 -34.7328 79.0611 76.8157 81.6343C164.602 83.6643 248.537 81.8939 336.137 80.5872C454.505 78.8167 573.394 78.8503 691.534 76.2864C762.285 74.76 832.047 71.2952 903.104 70.5933C964.375 69.9827 1025.12 71.228 1085.91 72.8063C1144.61 74.3327 1201.54 75.5108 1260.32 73.6091C1363.92 70.2512 1466.1 76.0084 1569.9 76.0725" stroke="white" stroke-miterlimit="10"/>
<path opacity="0.42" d="M-256.706 70.63C-142.015 72.8338 -28.5147 77.2507 86.0154 79.7478C174.724 81.6801 260.679 80.3981 349.334 79.3143C468.077 77.8674 587.166 77.5287 705.628 75.0407C774.038 73.5846 841.674 70.5139 910.365 69.6989C970.043 68.9967 1029.49 69.8697 1088.94 70.9534C1148.19 72.0341 1206.01 72.7452 1265.13 70.9931C1367.05 67.974 1467.89 73.4353 1570.01 73.5174" stroke="white" stroke-miterlimit="10"/>
<path opacity="0.42" d="M-256.706 68.96C-139.207 71.3685 -22.5502 75.4925 94.9741 77.9071C184.567 79.7386 272.38 78.942 362.051 78.0842C481.061 76.9425 600.271 76.2253 718.961 73.777C785.084 72.4156 850.62 69.7233 916.864 68.8198C975.166 68.0229 1033.43 68.5144 1091.72 69.1433C1151.68 69.778 1210.54 70.059 1270.27 68.4502C1370.4 65.7732 1469.69 70.8923 1569.92 71.045" stroke="white" stroke-miterlimit="10"/>
<path opacity="0.42" d="M-256.706 67.3118C-136.626 69.9185 -17.0946 73.7526 103.104 76.0786C193.512 77.8307 282.917 77.4981 373.498 76.8539C492.735 76.0084 611.958 74.8941 730.808 72.4859C852.706 70.0163 971.154 66.9578 1093.84 67.3576C1154.67 67.5589 1214.75 67.4187 1275.31 65.9931C1373.7 63.6732 1471.47 68.4869 1569.9 68.664" stroke="white" stroke-miterlimit="10"/>
<path opacity="0.42" d="M-256.706 65.645C-42.849 70.5292 167.931 76.6129 383.219 75.5842C502.674 75.0163 621.876 73.5205 740.824 71.097C859.192 68.7191 975.861 65.9993 1094.82 65.5808C1156.7 65.3643 1218.15 64.8667 1279.8 63.6336C1376.68 61.6951 1473.03 66.167 1569.9 66.3808" stroke="white" stroke-miterlimit="10"/>
<path opacity="0.42" d="M-256.706 63.9203C-41.2186 69.1097 173.534 74.8089 390.493 74.2319C510.132 73.9267 629.235 71.9455 748.351 69.5492C863.644 67.2324 978.348 64.8911 1094.09 63.789C1157.21 63.1909 1220.23 62.3891 1283.17 61.3835C1378.9 59.8575 1474.16 63.957 1569.85 64.2041" stroke="white" stroke-miterlimit="10"/>
<path opacity="0.42" d="M-256.706 62.1041C-40.55 67.5986 177.051 72.9193 394.825 72.7544C514.705 72.6628 633.714 70.224 752.991 67.7911C865.623 65.4925 978.428 63.6091 1091.3 61.9636C1155.87 61.0234 1220.46 60.0008 1285.08 59.253C1380.2 58.1479 1474.87 61.8628 1569.9 62.1377" stroke="white" stroke-miterlimit="10"/>
<path opacity="0.42" d="M-256.706 60.1901C-41.6462 65.8343 177.398 70.6574 394.103 70.7854C514.33 70.8587 633.782 68.6487 753.367 66.0783C864.713 63.6885 976.423 62.156 1087.91 60.0893C1153.44 58.8684 1219.13 57.7785 1284.87 57.0735C1380.27 56.0509 1474.54 60.2878 1569.9 60.1259" stroke="white" stroke-miterlimit="10"/>
<path opacity="0.42" d="M-256.706 58.3617C-133.684 61.4538 -10.4096 62.9588 113.093 64.4026C204.477 65.4711 295.459 67.3118 386.977 67.6383C507.767 68.0999 628.58 67.1096 748.913 64.6711C860.701 62.3756 972.45 60.535 1084.06 57.7297C1150.2 56.0692 1216.26 54.6773 1282.65 53.7279C1379.29 52.3207 1473.36 58.6118 1569.9 57.7816" stroke="white" stroke-miterlimit="10"/>
<path opacity="0.42" d="M-256.706 56.6616C-136.479 59.3263 -16.1595 59.5918 104.468 60.2971C194.957 60.8252 284.99 62.8061 375.356 63.6061C497.134 64.6834 619.286 65.3704 740.957 63.3342C853.896 61.4447 965.831 58.7555 1077.79 54.8603C1144.65 52.5251 1211.32 50.6145 1278.68 49.2317C1377.37 47.2047 1471.33 56.2981 1569.9 55.1291" stroke="white" stroke-miterlimit="10"/>
<path opacity="0.42" d="M-256.706 55.0985C-139.876 57.1378 -23.5272 55.944 93.4097 55.6908C182.694 55.4953 271.257 57.4796 360.166 58.9051C483.187 60.8771 606.784 63.4228 730.219 62.0889C845.097 60.8435 957.14 56.8995 1069.63 51.6154C1137.22 48.4286 1204.68 45.6294 1273.3 43.859C1374.73 41.2431 1468.54 53.5325 1569.9 52.2658" stroke="white" stroke-miterlimit="10"/>
<path opacity="0.42" d="M-256.706 53.6699C-143.62 54.9427 -32.0583 52.1435 80.5725 50.7607C168.614 49.6922 254.903 51.6062 342.355 53.7554C466.901 56.8078 591.833 61.3866 717.423 60.947C835.096 60.5319 946.924 55.0313 1060.05 48.1265C1128.4 43.9598 1196.81 40.1379 1266.92 37.8791C1371.38 34.5212 1465.29 50.4556 1569.9 49.2802" stroke="white" stroke-miterlimit="10"/>
<path opacity="0.42" d="M-256.706 52.3879C-147.511 52.7907 -41.499 48.2547 66.5998 45.6721C153.517 43.5996 236.757 45.4372 322.885 48.3705C449.129 52.6655 575.239 59.3599 703.328 59.9246C824.424 60.48 935.772 53.1753 1049.58 44.567C1118.59 39.3443 1188.06 34.3838 1259.88 31.5907C1367.33 27.4118 1461.97 47.2626 1569.9 46.298" stroke="white" stroke-miterlimit="10"/>
<path opacity="0.42" d="M-256.706 51.2583C-151.295 50.7302 -51.2468 44.4329 52.1842 40.6172C138.232 37.4426 217.675 39.2466 302.733 42.9829C430.742 48.6027 557.856 57.3879 688.659 59.0575C813.633 60.6449 924.419 51.3957 1038.72 41.0476C1108.25 34.7411 1178.88 28.581 1252.55 25.2384C1300.7 23.0559 1345.14 27.2653 1388.86 31.4871C1447.71 37.1616 1504.58 43.7979 1569.9 43.3919" stroke="white" stroke-miterlimit="10"/>
<path opacity="0.42" d="M-256.706 50.2845C-154.812 48.8101 -60.9413 40.776 37.7966 35.7513C123.002 31.4138 198.472 33.2698 282.676 37.7905C412.57 44.7686 540.526 55.6113 674.165 58.3433C803.123 60.9806 913.414 49.7564 1028.04 37.6958C1098.06 30.3301 1169.79 22.9765 1245.37 19.0753C1294.69 16.5356 1341.36 21.8226 1384.85 26.6029C1444.38 33.1567 1502.05 40.8887 1569.96 40.6294" stroke="white" stroke-miterlimit="10"/>
<path opacity="0.42" d="M-256.706 49.4726C-157.928 47.0794 -70.1677 37.3968 24.2502 31.252C108.494 25.7574 180.447 27.7721 263.835 33.0224C395.467 41.3161 524.105 54.085 660.565 57.8061C793.335 61.4294 903.345 48.2731 1017.85 34.6831C1088.22 26.3221 1161.04 17.8483 1238.51 13.4312C1289.11 10.5465 1337.7 16.8409 1380.96 22.1493C1441.13 29.5212 1499.44 38.3278 1569.9 38.1751" stroke="white" stroke-miterlimit="10"/>
<path opacity="0.42" d="M-256.706 48.8406C-160.522 45.6141 -78.4856 34.4265 12.1361 27.305C48.5074 24.4478 86.6434 22.4209 125.329 22.6468C166.675 22.888 207.913 26.1145 247.093 28.9076C380.277 38.4072 509.476 52.9099 648.611 57.4734C714.654 59.6406 774.306 58.084 836.74 52.5494C897.127 47.1832 952.794 39.4784 1008.84 32.1494C1079.59 22.8941 1153.27 13.4312 1232.54 8.54709C1284.46 5.34498 1334.44 12.5154 1377.59 18.2939C1438.09 26.3953 1497.12 36.2336 1569.9 36.0873" stroke="white" stroke-miterlimit="10"/>
<path opacity="0.42" d="M-256.706 48.3584C-162.528 44.4452 -85.5462 31.939 2.094 24.048C84.1834 16.6486 151.926 19.2494 233.428 25.6262C367.881 36.1485 497.522 52.1589 639.064 57.3299C705.923 59.772 766.096 58.154 828.837 52.2139C889.866 46.4142 945.506 38.1049 1001.51 30.1989C1072.5 20.1744 1146.91 9.98494 1227.79 4.68876C1281.09 1.19971 1331.68 9.01424 1374.88 15.2262C1435.54 23.9381 1495.11 34.729 1569.89 34.4572" stroke="white" stroke-miterlimit="10"/>
<path opacity="0.42" d="M-256.706 48.0685C-163.825 43.6879 -90.7341 30.0981 -5.22035 21.6883C75.7323 13.7365 143.354 16.734 223.666 23.4313C359.043 34.7259 488.991 51.9575 632.551 57.4245C773.21 62.7846 883.407 45.8066 996.266 29.0083C1067.56 18.3916 1142.32 7.74735 1224.57 2.14592C1279.25 -1.58429 1329.45 6.55684 1373.1 13.1717C1433.66 22.3477 1493.62 33.9839 1569.94 33.4039" stroke="white" stroke-miterlimit="10"/>
<path opacity="0.42" d="M-256.706 47.9616C-164.293 43.4256 -93.7956 28.9992 -9.19284 20.388C70.812 12.2346 139.77 15.7145 218.879 22.5247C354.777 34.2344 484.899 52.3849 629.93 57.7633C771.378 63.0076 881.562 45.9288 993.645 28.7001C1065.27 17.7048 1139.92 6.97506 1223.26 1.17524C1279.43 -2.72897 1327.9 5.31449 1372.37 12.314C1432.53 21.7769 1492.71 34.1214 1569.95 33.0041" stroke="white" stroke-miterlimit="10"/>
</g>
</g>
</g>
<g clip-path="url(#clip1_130_63)">
<mask id="mask1_130_63" style="mask-type:luminance" maskUnits="userSpaceOnUse" x="-190" y="114" width="1827" height="175">
<path d="M-190 289H1637V114H-190V289Z" fill="white"/>
</mask>
<g mask="url(#mask1_130_63)">
<g opacity="0.5">
<path opacity="0.42" d="M1636.71 114.158C1027.84 114.234 418.973 114.234 -189.899 114.158" stroke="white" stroke-miterlimit="10"/>
<path opacity="0.42" d="M1636.71 116.706C1334.3 118.159 1031.57 117.428 729.129 116.932C422.753 116.432 116.466 116.874 -189.899 116.932" stroke="white" stroke-miterlimit="10"/>
<path opacity="0.42" d="M1636.71 119.348C1338.99 122.738 1040.32 121.317 742.515 120.058C604.169 119.472 465.805 119.01 327.422 118.671C154.77 118.283 -17.3486 119.711 -189.899 120.2" stroke="white" stroke-miterlimit="10"/>
<path opacity="0.42" d="M1636.71 122.064C1345.56 127.787 1053.62 125.714 762.104 123.463C622.966 122.388 483.774 121.551 344.524 120.951C259.785 120.591 175.121 120.595 90.3683 120.782C-3.31616 120.992 -96.3029 123.193 -189.899 123.848" stroke="white" stroke-miterlimit="10"/>
<path opacity="0.42" d="M1636.71 124.888C1353.11 133.225 1070.78 130.554 786.427 127.135C646.166 125.45 505.801 124.167 365.332 123.285C277.547 122.715 189.762 122.55 102.003 122.792C4.15667 123.059 -92.243 126.671 -189.835 127.842" stroke="white" stroke-miterlimit="10"/>
<path opacity="0.42" d="M1636.71 127.772C1486.14 133.819 1333.62 136.692 1180.93 136.357C1058.31 136.115 936.22 133.072 814.041 130.986C672.459 128.57 530.37 126.916 388.535 125.657C297.428 124.846 206.294 124.468 115.122 124.757C12.5052 125.075 -87.7515 130.309 -189.899 132.071" stroke="white" stroke-miterlimit="10"/>
<path opacity="0.42" d="M1636.71 130.729C1492.22 138.303 1343.17 142.602 1195.03 141.982C1077.29 141.492 960.503 137.613 843.445 134.954C700.5 131.711 556.592 129.679 413.179 128.064C318.604 127.002 223.879 126.385 129.192 126.719C21.4625 127.1 -82.9429 134.058 -189.899 136.443" stroke="white" stroke-miterlimit="10"/>
<path opacity="0.42" d="M1636.71 133.746C1498.43 142.742 1353.11 148.659 1209.3 147.705C1096.44 146.958 985.04 142.223 873.172 139.006C728.942 134.853 583.082 132.497 438.077 130.541C340.02 129.218 241.641 128.363 143.415 128.741C30.4961 129.177 -78.1344 137.902 -189.899 140.904" stroke="white" stroke-miterlimit="10"/>
<path opacity="0.42" d="M1636.71 136.821C1505.54 147.037 1364.75 154.551 1225.92 153.413C1116.71 152.519 1009.54 146.856 901.761 143.075C754.884 137.921 605.412 135.276 457.333 133.012C356.616 131.473 255.306 130.366 154.364 130.865C37.4615 131.444 -74.4423 141.823 -189.899 145.365" stroke="white" stroke-miterlimit="10"/>
<path opacity="0.42" d="M1636.71 139.95C1511.34 151.27 1373.53 160.322 1238.22 158.933C1133.21 157.852 1030.96 151.359 927.756 147.107C780.09 141.018 628.6 138.166 479.222 135.626C375.403 133.857 270.784 132.56 166.671 133.123C45.2388 133.781 -70.2175 145.708 -189.886 149.746" stroke="white" stroke-miterlimit="10"/>
<path opacity="0.42" d="M1636.71 143.123C1516.36 155.356 1381.09 165.699 1248.51 164.144C1146.97 162.952 1048.86 155.696 949.645 151.05C801.551 144.112 648.296 141.091 497.984 138.331C391.41 136.369 283.878 134.942 176.961 135.568C51.6334 136.303 -66.6141 149.559 -189.899 153.973" stroke="white" stroke-miterlimit="10"/>
<path opacity="0.42" d="M1636.71 146.338C1520.02 159.289 1386.89 170.504 1256.09 168.914C1157.14 167.709 1062.2 159.779 965.999 154.837C817.852 147.235 663.327 144.052 512.506 141.142C403.644 139.031 293.8 137.568 184.547 138.249C56.1753 139.05 -63.7849 153.298 -189.861 157.963" stroke="white" stroke-miterlimit="10"/>
<path opacity="0.42" d="M1636.71 149.585C1522.68 163.006 1392.15 174.444 1262.75 173.156C1164.28 172.18 1070.62 163.617 975.346 158.434C825.915 150.322 669.022 146.936 516.569 143.937C406.746 141.778 295.931 140.373 185.753 141.196C56.7465 142.15 -62.9728 156.927 -189.899 161.613" stroke="white" stroke-miterlimit="10"/>
<path opacity="0.42" d="M1636.71 152.907C1523.67 166.262 1390.46 177.655 1262.11 176.501C1163.84 175.614 1070.65 166.812 975.627 161.677C825.648 153.572 666.736 150.522 513.87 147.298C404.982 144.999 294.967 143.482 185.639 144.49C56.886 145.692 -63.1504 160.157 -189.899 164.882" stroke="white" stroke-miterlimit="10"/>
<path opacity="0.42" d="M1636.71 156.45C1522.51 169.226 1381.58 180.059 1253.57 178.943C1155.89 178.088 1063.08 169.563 968.258 164.796C904.996 161.617 841.026 160.663 776.921 158.927C686.46 156.494 596.239 153.566 505.658 151.41C399.258 148.866 291.402 147.018 184.459 148.252C56.759 149.728 -64.0767 163.025 -189.962 167.747" stroke="white" stroke-miterlimit="10"/>
<path opacity="0.42" d="M1636.71 160.221C1566.9 167.311 1494.44 171.928 1420.01 175.289C1361.74 177.919 1303.04 181.083 1243.51 180.787C1145.2 180.298 1051.39 172.176 955.502 167.931C890.314 165.044 824.671 164.752 758.828 163.257C668.408 161.19 578.482 158.074 488.195 155.721C385.405 153.044 280.833 150.952 177.405 152.443C52.8894 154.255 -66.7663 165.798 -189.822 170.269" stroke="white" stroke-miterlimit="10"/>
<path opacity="0.42" d="M1636.71 164.195C1564.07 170.634 1489.03 174.052 1412.58 176.723C1352.18 178.835 1291.34 182.161 1230.04 182.161C1130.81 182.186 1035.49 174.65 938.185 171.086C871.099 168.628 803.812 169.044 736.27 167.769C646.251 166.071 556.913 162.822 467.268 160.284C368.316 157.486 267.562 155.197 167.927 156.962C47.2561 159.085 -70.2174 168.513 -189.937 172.542" stroke="white" stroke-miterlimit="10"/>
<path opacity="0.42" d="M1636.71 168.284C1560.66 173.938 1482.66 176.046 1403.73 177.913C1340.61 179.404 1277.64 182.787 1214.21 183.191C1113.82 183.827 1016.59 177.022 917.593 174.262C848.661 172.339 779.769 173.445 710.663 172.412C621.312 171.076 532.817 167.741 444.107 165.028C349.282 162.129 252.718 159.731 157.117 161.715C40.6967 164.132 -73.8968 171.178 -189.899 174.612" stroke="white" stroke-miterlimit="10"/>
<path opacity="0.42" d="M1636.71 172.447C1556.23 177.245 1474.5 177.963 1392.09 178.981C1325.47 179.792 1260.34 183.261 1193.94 184.024C1093.12 185.179 994.695 179.271 894.714 177.416C820.353 176.04 746.206 177.954 671.764 176.971C588.604 175.868 506.341 172.733 423.943 169.998C332.788 166.971 240.094 164.383 148.033 166.517C35.1144 169.137 -76.9925 173.779 -189.899 176.561" stroke="white" stroke-miterlimit="10"/>
<path opacity="0.42" d="M1636.71 176.638C1552.24 180.469 1467.35 179.786 1381.85 179.909C1311.69 180.008 1245.2 183.461 1175.75 184.705C1073.41 186.533 972.578 181.452 870.618 180.52C794.398 179.824 718.913 182.428 642.693 181.671C560.657 180.863 479.65 177.706 398.59 174.803C311.968 171.699 224.031 168.974 136.437 171.353C27.7681 174.301 -80.8623 176.367 -189.835 178.422" stroke="white" stroke-miterlimit="10"/>
<path opacity="0.42" d="M1636.71 180.8C1548.29 183.643 1460.38 181.589 1371.76 180.857C1297.88 180.253 1230.5 183.684 1157.71 185.411C1053.69 187.878 950.354 183.608 846.361 183.595C768.456 183.595 691.648 186.838 613.61 186.32C532.817 185.786 453.147 182.628 373.612 179.541C291.668 176.361 208.679 173.483 125.678 176.103C20.8663 179.413 -84.4528 178.965 -189.899 180.301" stroke="white" stroke-miterlimit="10"/>
<path opacity="0.42" d="M1636.71 184.889C1544.61 186.762 1453.97 183.417 1362.31 181.897C1325.14 181.283 1287.61 180.981 1250.46 181.878C1213.54 182.768 1177.57 185.201 1140.66 186.256C1034.88 189.29 929.053 185.751 823.04 186.613C743.451 187.248 665.466 191.134 585.569 190.848C506.1 190.562 427.982 187.417 349.942 184.12C272.789 180.86 194.825 177.789 116.543 180.66C14.9158 184.383 -87.5739 181.585 -189.899 182.25" stroke="white" stroke-miterlimit="10"/>
<path opacity="0.42" d="M1636.71 188.838C1541.4 189.83 1448.46 185.309 1354.05 183.115C1315.74 182.225 1276.96 181.725 1238.55 182.593C1200.48 183.452 1163.42 186.139 1125.49 187.363C1017.88 190.861 909.664 187.919 801.699 189.563C720.492 190.797 641.37 195.261 559.667 195.191C481.549 195.125 404.981 192.012 328.551 188.463C256.346 185.115 183.355 181.786 109.856 184.911C10.5384 189.131 -89.8577 184.225 -189.835 184.342" stroke="white" stroke-miterlimit="10"/>
<path opacity="0.42" d="M1636.71 192.632C1538.86 192.848 1444.15 187.309 1347.51 184.584C1308.31 183.477 1268.48 182.835 1229.08 183.744C1189.98 184.651 1151.92 187.506 1113.01 188.857C1003.61 192.651 893.203 190.129 783.419 192.425C700.647 194.148 620.389 199.16 536.815 199.293C459.993 199.414 385.044 196.295 310.217 192.489C242.796 189.061 175.07 185.42 106.202 188.765C8.03912 193.535 -91.0883 186.883 -189.899 186.644" stroke="white" stroke-miterlimit="10"/>
<path opacity="0.42" d="M1636.71 196.187C1537.15 195.821 1441.38 189.458 1343.19 186.393C1303.4 185.153 1262.83 184.444 1222.85 185.487C1182.86 186.53 1143.95 189.449 1104.16 190.854C993.078 194.778 880.74 192.444 769.326 195.191C685.002 197.268 603.594 202.785 518.282 203.093C442.704 203.366 369.265 200.27 296.071 196.117C232.316 192.502 172 188.985 106.596 192.11C6.9733 196.88 -89.7055 189.567 -189.835 189.223" stroke="white" stroke-miterlimit="10"/>
<path opacity="0.42" d="M1636.71 199.462C1536.42 198.753 1440.5 191.789 1341.64 188.625C1301.62 187.353 1260.67 186.673 1220.47 187.948C1179.87 189.236 1140.23 192.104 1099.62 193.487C987.019 197.303 873.145 194.877 760.326 197.843C674.465 200.104 591.841 206.082 504.924 206.534C430.482 206.918 358.417 203.84 286.847 199.271C228.002 195.519 172.418 191.484 111.671 194.845C10.0438 200.46 -87.4723 192.206 -189.822 192.148" stroke="white" stroke-miterlimit="10"/>
<path opacity="0.42" d="M1636.71 202.422C1535.9 201.468 1438.94 194.883 1339.32 191.799C1299.37 190.562 1258.63 189.891 1218.49 191.029C1177.48 192.19 1137.27 194.797 1096.23 196.063C982.085 199.586 866.793 197.586 752.571 200.54C669.317 202.693 588.845 208.244 504.615 208.658C432.728 209.011 362.972 206.114 293.571 201.961C235.247 198.463 179.904 194.81 119.829 197.828C15.6515 203.065 -85.0492 195.258 -189.861 195.236" stroke="white" stroke-miterlimit="10"/>
<path opacity="0.42" d="M1636.71 205.09C1534.6 203.91 1435.9 197.675 1334.8 194.67C1249.39 192.126 1173.93 195.983 1089.64 198.32C974.249 201.519 857.793 199.935 742.368 202.854C661.695 204.893 583.296 210.041 501.861 210.461C432.407 210.82 364.774 208.184 297.378 204.47C239.345 201.274 184.116 198.059 124.586 200.8C18.9504 205.668 -83.7042 198.279 -189.899 198.276" stroke="white" stroke-miterlimit="10"/>
<path opacity="0.42" d="M1636.71 207.507C1532.71 206.095 1431.67 200.193 1328.51 197.281C1242.82 194.848 1165.37 198.215 1080.49 200.301C964.074 203.163 846.722 201.983 730.346 204.848C652.214 206.775 576.022 211.526 497.207 211.993C430.067 212.391 364.393 210.041 298.862 206.823C240.893 203.977 185.55 201.236 126.477 203.745C20.3333 208.257 -83.2982 201.239 -189.899 201.239" stroke="white" stroke-miterlimit="10"/>
<path opacity="0.42" d="M1636.71 209.71C1530.39 208.072 1426.54 202.518 1320.86 199.672C1234.65 197.347 1155.05 200.209 1069.39 202.053C952.159 204.578 834.112 203.783 717.014 206.588C641.397 208.397 567.356 212.766 491.177 213.303C426.176 213.764 362.312 211.739 298.494 209.039C240.436 206.585 184.827 204.339 125.995 206.654C20.1177 210.823 -83.628 204.174 -189.848 204.162" stroke="white" stroke-miterlimit="10"/>
<path opacity="0.42" d="M1636.71 211.732C1527.74 209.872 1420.78 204.642 1312.29 201.875C1225.37 199.649 1143.55 202.012 1056.98 203.615C939.095 205.796 820.553 205.379 702.854 208.117C629.696 209.825 557.796 213.809 484.21 214.441C421.175 214.982 358.937 213.313 296.692 211.144C238.406 209.109 182.2 207.373 123.521 209.513C18.5571 213.329 -84.6558 207.03 -189.899 206.995" stroke="white" stroke-miterlimit="10"/>
<path opacity="0.42" d="M1636.71 213.64C1524.89 211.561 1414.73 206.645 1303.18 203.964C1215.4 201.85 1131.46 203.694 1043.86 205.055C925.495 206.899 806.606 206.864 688.466 209.535C617.715 211.125 547.953 214.734 476.896 215.465C415.625 216.101 354.877 214.804 294.092 213.16C235.387 211.57 178.458 210.343 119.676 212.324C16.083 215.822 -86.1021 209.825 -189.899 209.758" stroke="white" stroke-miterlimit="10"/>
<path opacity="0.42" d="M1636.71 215.427C1522.02 213.131 1408.51 208.531 1293.98 205.929C1205.28 203.917 1119.32 205.252 1030.67 206.381C911.923 207.888 792.834 208.241 674.372 210.833C605.962 212.349 538.326 215.548 469.635 216.397C409.957 217.128 350.513 216.219 291.059 215.09C231.809 213.964 173.992 213.224 114.868 215.049C12.9494 218.194 -87.8909 212.505 -190.013 212.419" stroke="white" stroke-miterlimit="10"/>
<path opacity="0.42" d="M1636.71 217.167C1519.21 214.658 1402.55 210.362 1285.03 207.847C1195.43 205.939 1107.62 206.769 1017.95 207.662C898.939 208.852 779.729 209.599 661.039 212.149C594.916 213.567 529.38 216.371 463.136 217.313C404.834 218.143 346.567 217.631 288.281 216.976C228.32 216.315 169.462 216.022 109.729 217.698C9.59972 220.486 -89.6926 215.154 -189.924 214.995" stroke="white" stroke-miterlimit="10"/>
<path opacity="0.42" d="M1636.71 218.884C1516.63 216.168 1397.09 212.174 1276.9 209.751C1186.49 207.926 1097.08 208.273 1006.5 208.944C887.265 209.825 768.042 210.985 649.192 213.494C527.294 216.066 408.846 219.252 286.162 218.836C225.325 218.626 165.25 218.772 104.693 220.257C6.301 222.674 -91.4689 217.66 -189.899 217.475" stroke="white" stroke-miterlimit="10"/>
<path opacity="0.42" d="M1636.71 220.62C1422.85 215.532 1212.07 209.195 996.781 210.267C877.326 210.858 758.124 212.416 639.176 214.941C520.808 217.418 404.139 220.251 285.185 220.687C223.295 220.912 161.85 221.431 100.201 222.715C3.31939 224.734 -93.0295 220.076 -189.899 219.853" stroke="white" stroke-miterlimit="10"/>
<path opacity="0.42" d="M1636.71 222.416C1421.22 217.011 1206.47 211.074 989.507 211.675C869.868 211.993 750.765 214.057 631.649 216.553C516.356 218.966 401.652 221.405 285.908 222.553C222.788 223.176 159.769 224.011 96.8262 225.059C1.09904 226.648 -94.1586 222.378 -189.848 222.121" stroke="white" stroke-miterlimit="10"/>
<path opacity="0.42" d="M1636.71 224.308C1420.55 218.585 1202.95 213.042 985.175 213.214C865.295 213.31 746.286 215.85 627.009 218.384C514.377 220.779 401.572 222.741 288.699 224.455C224.133 225.434 159.541 226.499 94.9231 227.278C-0.195087 228.429 -94.8692 224.56 -189.899 224.273" stroke="white" stroke-miterlimit="10"/>
<path opacity="0.42" d="M1636.71 226.302C1421.65 220.423 1202.6 215.399 985.897 215.265C865.67 215.189 746.218 217.491 626.633 220.168C515.287 222.658 403.577 224.254 292.087 226.407C226.556 227.679 160.873 228.814 95.1261 229.548C-0.27117 230.614 -94.5393 226.2 -189.899 226.369" stroke="white" stroke-miterlimit="10"/>
<path opacity="0.42" d="M1636.71 228.207C1513.68 224.986 1390.41 223.418 1266.91 221.914C1175.52 220.801 1084.54 218.884 993.023 218.543C872.233 218.063 751.42 219.094 631.087 221.634C519.299 224.025 407.55 225.943 295.944 228.865C229.804 230.595 163.74 232.044 97.3465 233.033C0.705773 234.499 -93.3594 227.946 -189.899 228.811" stroke="white" stroke-miterlimit="10"/>
<path opacity="0.42" d="M1636.71 229.978C1516.48 227.202 1396.16 226.925 1275.53 226.191C1185.04 225.64 1095.01 223.577 1004.64 222.744C882.866 221.622 760.714 220.906 639.043 223.027C526.104 224.995 414.169 227.796 302.211 231.854C235.348 234.286 168.676 236.277 101.318 237.717C2.63428 239.829 -91.3294 230.356 -189.899 231.574" stroke="white" stroke-miterlimit="10"/>
<path opacity="0.42" d="M1636.71 231.606C1519.88 229.482 1403.53 230.725 1286.59 230.989C1197.31 231.192 1108.74 229.126 1019.83 227.641C896.813 225.586 773.216 222.935 649.781 224.324C534.903 225.621 422.86 229.73 310.37 235.234C242.783 238.554 175.324 241.469 106.697 243.314C5.27326 246.038 -88.5381 233.237 -189.899 234.557" stroke="white" stroke-miterlimit="10"/>
<path opacity="0.42" d="M1636.71 233.094C1523.62 231.768 1412.06 234.684 1299.43 236.124C1211.39 237.237 1125.1 235.244 1037.65 233.005C913.099 229.825 788.167 225.056 662.577 225.514C544.904 225.946 433.076 231.676 319.949 238.868C251.601 243.209 183.19 247.19 113.079 249.543C8.6228 253.04 -85.2901 236.442 -189.899 237.666" stroke="white" stroke-miterlimit="10"/>
<path opacity="0.42" d="M1636.71 234.429C1527.51 234.01 1421.5 238.735 1313.4 241.425C1226.48 243.584 1143.24 241.669 1057.12 238.614C930.871 234.14 804.761 227.167 676.672 226.578C555.576 226 444.228 233.609 330.416 242.576C261.409 248.016 191.945 253.184 120.121 256.093C12.6702 260.446 -81.966 239.768 -189.899 240.773" stroke="white" stroke-miterlimit="10"/>
<path opacity="0.42" d="M1636.71 235.606C1531.3 236.156 1431.25 242.716 1327.82 246.69C1241.77 249.997 1162.33 248.118 1077.27 244.226C949.258 238.372 822.144 229.221 691.341 227.482C566.367 225.828 455.581 235.463 341.276 246.242C271.749 252.811 201.117 259.228 127.454 262.71C79.3048 264.983 34.8606 260.599 -8.86055 256.201C-67.7052 250.29 -124.583 243.377 -189.899 243.8" stroke="white" stroke-miterlimit="10"/>
<path opacity="0.42" d="M1636.71 236.62C1534.81 238.156 1440.94 246.525 1342.2 251.759C1257 256.277 1181.53 254.344 1097.32 249.635C967.43 242.366 839.474 231.071 705.835 228.226C576.877 225.478 466.586 237.17 351.959 249.733C281.937 257.406 210.214 265.066 134.635 269.13C85.3059 271.775 38.6413 266.268 -4.85142 261.289C-64.3812 254.462 -122.046 246.408 -189.962 246.678" stroke="white" stroke-miterlimit="10"/>
<path opacity="0.42" d="M1636.71 237.466C1537.93 239.959 1450.17 250.045 1355.75 256.446C1271.51 262.169 1199.55 260.071 1116.17 254.602C984.533 245.962 855.895 232.661 719.435 228.785C586.665 225.011 476.655 238.715 362.147 252.872C291.782 261.581 218.956 270.408 141.486 275.009C90.8886 278.014 42.2954 271.457 -0.956267 265.928C-61.1331 258.249 -119.445 249.075 -189.899 249.234" stroke="white" stroke-miterlimit="10"/>
<path opacity="0.42" d="M1636.71 238.124C1540.52 241.485 1458.49 253.139 1367.86 260.557C1331.49 263.534 1293.36 265.645 1254.67 265.41C1213.33 265.158 1172.09 261.797 1132.91 258.888C999.723 248.992 870.524 233.886 731.389 229.132C665.346 226.874 605.694 228.496 543.26 234.261C482.873 239.851 427.206 247.877 371.164 255.511C300.41 265.152 226.734 275.009 147.462 280.097C95.5448 283.432 45.5561 275.963 2.40595 269.944C-58.088 261.505 -117.123 251.257 -189.899 251.409" stroke="white" stroke-miterlimit="10"/>
<path opacity="0.42" d="M1636.71 238.627C1542.53 242.703 1465.55 255.73 1377.91 263.95C1295.82 271.658 1228.07 268.949 1146.57 262.306C1012.12 251.345 882.478 234.668 740.936 229.281C674.077 226.738 613.904 228.423 551.163 234.611C490.134 240.652 434.494 249.307 378.493 257.543C307.502 267.985 233.09 278.599 152.207 284.116C98.9069 287.75 48.3219 279.61 5.12094 273.139C-55.538 264.064 -115.106 252.824 -189.886 253.107" stroke="white" stroke-miterlimit="10"/>
<path opacity="0.42" d="M1636.71 238.929C1543.82 243.492 1470.73 257.648 1385.22 266.408C1304.27 274.691 1236.65 271.569 1156.33 264.592C1020.96 252.827 891.009 234.878 747.449 229.183C606.79 223.599 496.593 241.285 383.734 258.783C312.438 269.842 237.683 280.93 155.43 286.765C100.747 290.65 50.5548 282.17 6.89707 275.279C-53.6604 265.721 -113.621 253.6 -189.937 254.204" stroke="white" stroke-miterlimit="10"/>
<path opacity="0.42" d="M1636.71 239.04C1544.29 243.765 1473.8 258.792 1389.19 267.763C1309.19 276.256 1240.23 272.631 1161.12 265.537C1025.22 253.339 895.101 234.432 750.07 228.83C608.622 223.367 498.438 241.158 386.355 259.104C314.734 270.558 240.081 281.734 156.737 287.776C100.569 291.843 52.1029 283.464 7.63319 276.173C-52.5309 266.316 -112.708 253.457 -189.949 254.621" stroke="white" stroke-miterlimit="10"/>
</g>
</g>
</g>
<defs>
<clipPath id="clip0_130_63">
<rect width="1827" height="168" fill="white" transform="translate(-257)"/>
</clipPath>
<clipPath id="clip1_130_63">
<rect width="1827" height="175" fill="white" transform="matrix(-1 0 0 -1 1637 289)"/>
</clipPath>
</defs>
</svg>
